<svg viewBox="0 0 200 200" xmlns="http://www.w3.org/2000/svg" id="Layer_1"><defs><style>.cls-1{fill:#b5b4b2;}</style></defs><path d="M93.57,183.51H19.43c-4.8,0-6.62-1.84-6.62-6.71v-4.05A4.75,4.75,0,0,1,14.42,169a3,3,0,0,0,1.07-2.65q0-47.83,0-95.66A2.22,2.22,0,0,0,14,68.25a4.8,4.8,0,0,1-2.91-4.72c0-2.53,0-5.06,0-7.59,0-3.75,2.05-5.87,5.76-5.89,7.11,0,14.22,0,21.33,0,2.83,0,5.66,0,8.49,0,1.26,0,1.81-.33,1.77-1.7-.08-3.21,0-6.42,0-9.62a1.7,1.7,0,0,0-1.12-1.82,5.23,5.23,0,0,1-3.16-5.12q-.09-3.8,0-7.59a5.32,5.32,0,0,1,5.64-5.56q43.74,0,87.46,0c3.44,0,5.58,2.23,5.65,5.74,0,2.42,0,4.84,0,7.26s-.92,4.29-3.18,5.28a1.68,1.68,0,0,0-1.11,1.82c0,3,0,6.07,0,9.11,0,2.18,0,2.19,2.25,2.19h28.65a8.7,8.7,0,0,1,3,.37A4.88,4.88,0,0,1,176,55.09c.06,2.81,0,5.62,0,8.44a4.85,4.85,0,0,1-3,4.8,2,2,0,0,0-1.33,2.18q0,48,0,96a3.11,3.11,0,0,0,1.05,2.49c2.31,2.21,2.42,10.49.23,12.83a5.65,5.65,0,0,1-4.38,1.7q-10.58,0-21.15,0H93.57ZM53.36,108.33v56.52A2.33,2.33,0,0,0,56,167.47H67.69c2.93,0,4.4-1.51,4.43-4.53,0-.34,0-.68,0-1a2.16,2.16,0,0,1,1.07-2c1.29-.59,1.29-1.62,1.28-2.79q0-14.18,0-28.34c0-3.27.76-4.07,4-4.08q15.08,0,30.16,0c3.16,0,3.94.84,3.94,4q0,14.34,0,28.68c0,1.07.06,2,1.21,2.49a2.3,2.3,0,0,1,1.16,2.28c0,1.12.08,2.26,0,3.37-.13,1.48.4,2,1.88,1.94,4.89-.08,9.77,0,14.66,0,2.23,0,2.23,0,2.23-2.2V51.71c0-2.19,0-2.2-2.24-2.2H55.68a2,2,0,0,0-2.32,2.29v56.52ZM138.65,118v47.22c0,2.2,0,2.2,2.22,2.21,7.83,0,15.66,0,23.48,0,1.64,0,2.22-.42,2.22-2.17q-.06-47.22,0-94.44c0-1.76-.6-2.15-2.23-2.14-7.82.08-15.65,0-23.48,0a2,2,0,0,0-2.21,2.2v47.05Zm-90.2.16c0-15.8,0-31.59,0-47.39,0-1.48-.32-2.07-1.93-2q-12,.12-24,0c-1.68,0-2,.61-2,2.16q.06,47.22,0,94.43c0,1.78.61,2.16,2.23,2.15,7.83-.07,15.65,0,23.48,0a2,2,0,0,0,2.21-2.22Zm44.93,60.13h72.81c.61,0,1.22,0,1.83,0,.46,0,1-.1,1.06-.63a14.48,14.48,0,0,0,0-4.36c-.08-.52-.59-.62-1.05-.63q-.92,0-1.83,0H20.92c-.5,0-1,0-1.5,0-1-.05-1.57.39-1.52,1.48,0,.51,0,1,0,1.52a2.36,2.36,0,0,0,2.67,2.67H93.38Zm.35-154.51H52.1c-.5,0-1,0-1.5,0-.9,0-1.32.39-1.31,1.31,0,1.47,0,2.93,0,4.39,0,1.8.88,2.71,2.62,2.71h83.26c.45,0,.89,0,1.33,0,.9,0,1.31-.42,1.31-1.33,0-1.58,0-3.15,0-4.72,0-2.35,0-2.36-2.29-2.36ZM93.61,37.4H57.79c-3,0-4.43,1.51-4.43,4.52a2.13,2.13,0,0,0,2.39,2.4h73.3c4.7,0,4.62,0,4.72-4.8,0-1.75-.51-2.17-2.18-2.16-12.66.07-25.32,0-38,0ZM96,144.63c0,4.38,0,8.77,0,13.15,0,1.14.33,1.64,1.52,1.61q4.25-.07,8.49,0c1.2,0,1.52-.51,1.52-1.62q0-13.15,0-26.32c0-1.3-.53-1.62-1.71-1.6-2.6.06-5.22.09-7.82,0-1.49-.05-2,.36-2,2,.11,4.27,0,8.54,0,12.82Zm-4.9,0c0-4.39,0-8.78,0-13.16,0-1.12-.29-1.64-1.5-1.62-2.83.07-5.66.06-8.49,0-1.18,0-1.54.47-1.54,1.6q0,13.16,0,26.32c0,1.28.51,1.65,1.69,1.62,2.72,0,5.44-.07,8.16,0,1.36,0,1.7-.51,1.69-1.79-.06-4.33,0-8.65,0-13ZM32.22,63.83c4.82,0,9.65,0,14.47,0,1.41,0,1.86-.47,1.78-1.85a47.26,47.26,0,0,1,0-5c.07-1.34-.44-1.77-1.73-1.74-3.32.06-6.65,0-10,0-6.32,0-12.64,0-19,0-1.37,0-1.88.44-1.8,1.84a41.82,41.82,0,0,1,0,4.88c-.1,1.5.48,1.94,1.92,1.92,4.76-.07,9.53,0,14.3,0Zm122.65,0c4.82,0,9.65,0,14.47,0,1.27,0,1.82-.39,1.76-1.74-.08-1.79-.06-3.59,0-5.39,0-1.08-.37-1.5-1.45-1.5q-14.8,0-29.6,0c-1.13,0-1.43.53-1.4,1.56.05,1.68.1,3.37,0,5.05-.1,1.51.36,2.06,1.94,2,4.77-.1,9.54,0,14.3,0ZM93.5,167.47H108c1,0,1.91.09,1.92-1.39s-.74-1.52-1.82-1.51q-14.56,0-29.13,0c-1,0-1.73.11-1.75,1.41s.76,1.5,1.82,1.5c4.83,0,9.66,0,14.48,0Z" class="cls-1"></path><path d="M93.57,77.47c1.88,0,3.77-.06,5.66,0,2.25.09,3.21,1,3.26,3.18.09,3.94.08,7.87,0,11.81,0,2.12-.88,3-3,3.09q-6,.16-12,0c-2.08-.06-2.89-1-2.94-3.11q-.12-5.91,0-11.81c0-2.15,1-3,3.12-3.15l.33,0h5.5Zm-.17,13q4,0,4-4.05c0-2.56-1.24-3.84-3.74-3.84-2.7,0-4,1.34-4,4S90.9,90.51,93.4,90.51Z" class="cls-1"></path><path d="M93.6,54.39c2,0,4,0,6,0,1.78,0,2.71.69,2.81,2.41a114.53,114.53,0,0,1,0,13,2.56,2.56,0,0,1-2.76,2.58c-4.06.07-8.11.08-12.15,0a2.6,2.6,0,0,1-2.86-2.85q-.15-6.23,0-12.47c0-1.91,1-2.63,3-2.65s4,0,6,0Zm0,5q-3.91,0-3.92,4t3.87,3.88c2.58,0,3.89-1.33,3.92-4s-1.29-3.87-3.87-3.87Z" class="cls-1"></path><path d="M77.67,86.62c0,2,0,3.93,0,5.9s-.67,2.88-2.58,3a105.88,105.88,0,0,1-12.47,0c-1.81-.09-2.69-1.12-2.72-3q-.09-6,0-12c0-1.94.94-3,2.85-3q6.08-.16,12.15,0c2,0,2.75,1,2.77,3s0,4,0,6.07Zm-4.9,0q0-4.07-4-4.06Q65,82.61,65,86.44q0,4.05,4,4c2.5,0,3.75-1.27,3.75-3.83Z" class="cls-1"></path><path d="M93.39,118.74c-1.94,0-3.88,0-5.83,0s-2.86-.83-2.91-2.72q-.15-6.24,0-12.47c0-1.91,1.11-2.8,3.06-2.83q5.82-.08,11.64,0c2,0,3,1,3.1,3q.15,6.06,0,12.13c-.06,2.19-1,2.89-3.23,2.92C97.27,118.75,95.33,118.74,93.39,118.74Zm4-8.73c0-4.13,0-4.16-4.13-4.12s-3.61-.58-3.65,3.76c0,4.11,0,4.11,4.12,4.11q3.66,0,3.66-3.76Z" class="cls-1"></path><path d="M77.67,109.71c0,2,0,4.05,0,6.07s-.85,2.93-2.81,3c-4,0-8.09,0-12.15,0a2.5,2.5,0,0,1-2.78-2.68q-.14-6.24,0-12.47a2.6,2.6,0,0,1,2.86-2.84c4-.07,8.1-.08,12.15,0,1.82,0,2.7,1.07,2.73,2.91,0,2,0,4,0,6.07Zm-4.9,0q0-3.87-3.9-3.87h-.16c-4.31.06-3.72-.58-3.72,3.71,0,4.53-.66,4,4,4C73.41,113.58,72.7,114.05,72.77,109.75Z" class="cls-1"></path><path d="M118.25,118.73c-1.94,0-3.88,0-5.83,0-2.1,0-3-.86-3-2.94q0-6.08,0-12.14c0-1.85.9-2.88,2.72-2.92q6.06-.11,12.15,0c1.88,0,2.85,1,2.89,3q.11,6.06,0,12.13c0,1.94-1,2.83-3,2.86S120.25,118.73,118.25,118.73Zm0-12.85c-4.5.07-3.85-.59-3.88,3.54s0,4.18,4.13,4.16,3.62.39,3.65-3.66,0-4-3.9-4Z" class="cls-1"></path><path d="M109.43,63.33c0-2.08,0-4.15,0-6.23,0-1.83.88-2.69,2.67-2.7q6.16,0,12.32,0a2.48,2.48,0,0,1,2.75,2.7q.12,6.23,0,12.47a2.58,2.58,0,0,1-2.75,2.78q-6.17.14-12.32,0c-1.81,0-2.65-1.07-2.68-2.95s0-4,0-6.07Zm12.69.09q0-4.08-4-4.08-3.76,0-3.77,3.8,0,4.1,4,4.09c2.52,0,3.79-1.27,3.79-3.81Z" class="cls-1"></path><path d="M68.87,54.39c2,0,4,0,6,0s2.79.86,2.8,2.76q.06,6.15,0,12.3c0,1.79-.84,2.84-2.56,2.89q-6.24.14-12.48,0a2.57,2.57,0,0,1-2.7-2.83c-.08-4.15-.09-8.31,0-12.46,0-1.77,1.05-2.63,2.79-2.66,2.06,0,4.11,0,6.16,0Zm3.9,8.9q0-3.94-4-3.94T65,63.28q0,3.93,4,4,3.81,0,3.81-3.94Z" class="cls-1"></path><path d="M118.29,95.47c-2,0-4,0-6,0s-2.85-.82-2.86-2.85q0-6.06,0-12.13c0-1.92.78-2.9,2.66-2.95,4.1-.11,8.2-.1,12.3,0a2.61,2.61,0,0,1,2.8,2.91q.12,6.06,0,12.13c0,2-1,2.86-3.09,2.89s-3.89,0-5.83,0Zm3.83-9c0-2.58-1.24-3.86-3.73-3.86q-4.06,0-4.06,4,0,3.85,3.89,3.86c2.6,0,3.89-1.35,3.9-4Z" class="cls-1"></path><path d="M143.1,88.73c0-2,0-3.94,0-5.91s.95-3,2.95-3c4,0,8-.06,12,0a2.61,2.61,0,0,1,2.85,2.84q.11,6.15,0,12.3c0,1.9-1.06,2.86-3,2.87q-5.91.06-11.82,0c-2,0-3-1-3-3s0-4.05,0-6.07Zm12.7.19c0-4,0-4-4-4s-3.63-.5-3.62,3.69c0,4.55-.53,4,4,4C156.32,92.64,155.75,93.05,155.8,88.92Z" class="cls-1"></path><path d="M143.1,112c0-2,0-3.94,0-5.9s.92-3,2.93-3q5.91-.06,11.82,0c2,0,3,1,3,3q.09,6,0,12c0,2.09-1,3.06-3.14,3.08q-5.74.06-11.49,0c-2.27,0-3.15-1-3.17-3.36,0-1.91,0-3.82,0-5.73Zm12.7.24c-.07-4.62.62-4-4-4-4,0-3.66-.44-3.64,3.68,0,4.61-.55,4,4,4,4.14,0,3.57.5,3.62-3.66Z" class="cls-1"></path><path d="M143.1,135.19c0-2,0-4.05,0-6.07s.91-2.81,2.76-2.83q6.07,0,12.16,0a2.56,2.56,0,0,1,2.85,2.79c.08,4.1.07,8.2,0,12.31,0,1.77-.91,2.81-2.65,2.85q-6.31.16-12.65,0c-1.61,0-2.45-1.12-2.48-2.81C143.07,139.35,143.1,137.27,143.1,135.19Zm8.89-3.94c-4.28.06-3.75-.63-3.8,3.83v.34c0,4.24-.41,3.68,3.6,3.71s4,0,4-4.1c0-2.52-1.28-3.78-3.82-3.78Z" class="cls-1"></path><path d="M44,88.82c0,2,0,3.93,0,5.9,0,2.14-.94,3.06-3.07,3.08q-5.74,0-11.49,0c-2.22,0-3.21-1-3.24-3.14,0-3.93,0-7.87,0-11.8,0-2.1,1-3.08,3.12-3.1q5.84-.06,11.65,0c2.1,0,3,1,3,3.15C44,84.88,44,86.85,44,88.82Zm-12.7-.2c.07,4.58-.63,4,4,4,4,0,3.65.41,3.63-3.71,0-4.61.55-4-4-4-4.14,0-3.56-.52-3.61,3.67Z" class="cls-1"></path><path d="M44,112.11c0,2,0,3.94,0,5.9s-.93,3-2.81,3q-6.07.1-12.15,0a2.6,2.6,0,0,1-2.82-2.86q-.11-6.17,0-12.31A2.59,2.59,0,0,1,29.05,103q6.07-.07,12.15,0c1.81,0,2.74,1,2.78,2.85.05,2.08,0,4.16,0,6.24Zm-9,3.77c4.38-.06,3.83.56,3.88-4v-.17c0-4,.35-3.58-3.6-3.56-4.64,0-4-.6-4,4,0,4.25-.56,3.67,3.72,3.72Z" class="cls-1"></path><path d="M44,135.3c0,2,0,4,0,6.06,0,1.83-.94,2.88-2.75,2.92-4.06.07-8.11.08-12.16,0-2,0-2.87-1.09-2.89-3.16q-.06-5.82,0-11.64c0-2.25,1-3.18,3.15-3.19,3.82,0,7.66,0,11.49,0,2.36,0,3.15.84,3.17,3.28C44,131.47,44,133.38,44,135.3Zm-9.09,3.83c4.54-.07,3.94.65,4-4v-.51c0-3.89.3-3.38-3.39-3.4-4.22,0-4.23,0-4.21,4.21s-.52,3.61,3.61,3.67Z" class="cls-1"></path></svg>