<svg viewBox="0 0 200 200" xmlns="http://www.w3.org/2000/svg" id="Layer_1"><defs><style>.cls-1{fill:#b5b4b2;}</style></defs><path d="M180,81c0-1.52-.26-2.8-1.81-3.46A1.28,1.28,0,0,1,177.5,76c.65-3.5-.89-6-3.53-8a4,4,0,0,1-1.53-3.37,12.54,12.54,0,0,0-5.78-10.19A3.46,3.46,0,0,1,165,51c0-4,.74-3.47-3.7-3.55-1.18,0-1.59.48-1.5,1.58a10.87,10.87,0,0,0,0,1.4c.48,2.23-.73,3.47-2.5,4.44-1.14.63-2.09.29-2.28-1a13.71,13.71,0,0,0-6.58-10.11,1.71,1.71,0,0,1-.9-1.68c0-.36,0-.73,0-1.09,0-3.76-.38-4.06-4.22-3.52-.71.1-1.11.44-1,1.1.64,3.34-.84,5.48-3.54,7.3-1.78,1.21-2.52,3-3.75,6.41,0-1.7,0-3.06,0-4.43,0-1.94-1-2.95-2.89-2.85-1.65.08-2.42-.44-2.82-2.08A12.61,12.61,0,0,0,126,37.24a3.08,3.08,0,0,1-.92-2.38c0-2,0-3.95,0-5.93,0-1-.31-1.42-1.34-1.41-4.76,0-3.79-.47-3.89,3.69,0,1.91,0,1.84-2,1.58a6.2,6.2,0,0,1-3.84-2,18.52,18.52,0,0,0-9.72-5.29c-1.24-.27-1.74-.77-1.74-2.07,0-3.71.67-3.3-3.42-3.39-1.34,0-1.84.37-1.82,1.77,0,3.12,0,3.11-3,4A20.32,20.32,0,0,0,85,31.57c-.5.55-1,1.16-1.84.85s-.58-1.13-.59-1.76c-.08-3.46.47-3.06-3.21-3.17-1.52,0-2.3.36-2,2,0,.1,0,.21,0,.31.34,2.88-.13,5.22-2.88,7.05-2.17,1.44-3.34,3.95-4,6.53A1.88,1.88,0,0,1,68.28,45c-2.66-.06-3.41.77-3.42,3.44,0,1.18,0,2.35-.07,3.55a14.18,14.18,0,0,0-6.44-8.32,1.5,1.5,0,0,1-.74-1.45c0-.36,0-.73,0-1.09,0-4-.08-4-4.09-3.65-.77.07-1.25.37-1.11,1.14.61,3.26-.83,5.3-3.43,7.2s-3.55,4.79-4.06,7.86c-.26,1.59-1.08,1.77-2.53,1.07C40.19,53.72,40,52,40.1,49.89c.12-2.38,0-2.39-2.36-2.39a7.93,7.93,0,0,1-1.09,0c-1.38-.17-1.94.43-1.76,1.78,0,.21,0,.43,0,.63.32,2.19-.39,3.65-2.35,5a12,12,0,0,0-5.12,10.2,2.9,2.9,0,0,1-1,2.33c-.36.3-.63.7-1,1a6.93,6.93,0,0,0-3,7.16,1.82,1.82,0,0,1-1.19,2.24c-.46.18-.79.66-1.18,1q0,49.87,0,99.74c0,1.17.26,1.43,1.43,1.43q78.6,0,157.18,0a4.07,4.07,0,0,0,1.39-3.46q0-47.74,0-95.51Zm-7.81-4.25c-.22.61-.69.71-1.24.71h-3.74c-.93,0-1.87,0-2.8,0a2.6,2.6,0,0,1-2.8-2.32c-.24-1.22-.46-2.45-.71-3.66-.17-.84,0-1.29,1-1.27,2,0,3.95-.06,5.92,0C170.17,70.33,173,74.59,172.19,76.75ZM159.34,60.43c2.63-3,3.44-2.93,6-.09a7.19,7.19,0,0,1,1.6,3.33c.2.91-.08,1.38-1.09,1.32s-1.76,0-2.65,0c-.57,0-1.14,0-1.71,0-.82-.07-1.92.38-2.32-.72-.45-1.26-.91-2.61.17-3.82Zm-19-6.76a8.07,8.07,0,0,1,3.82-5.25,1.44,1.44,0,0,1,1.6.06,8.16,8.16,0,0,1,3.67,5c.27,1,0,1.59-1.18,1.51s-2.28,0-3.41,0-2.29,0-3.42,0S140.13,54.56,140.34,53.67Zm-3.77,6.54q7.34.06,14.66,0a1.58,1.58,0,0,1,1.8,1.48q1.54,7.16,3.18,14.29c.27,1.18-.26,1.5-1.3,1.49-3.07,0-6.14,0-9.2,0s-6,0-9.05,0c-1.22,0-1.65-.45-1.64-1.66,0-4.68,0-9.36,0-14,0-1.12.4-1.58,1.55-1.57ZM128,77.48c-1.87-.09-3.74,0-5.62,0s-3.74,0-5.61,0c-1.17,0-1.75-.34-1.69-1.59.11-2.34-.09-4.67.25-7A14.83,14.83,0,0,1,121,59.05a1.94,1.94,0,0,1,2.77,0,15.19,15.19,0,0,1,6,12.15c.05,1.46-.06,2.92,0,4.37s-.38,2-1.85,1.92ZM70.18,51c0-.73.74-.73,1.34-.76,2.89-.17,3.23-.49,3.66-3.31.88-5.69,4.3-8.83,10.07-9.15A3.6,3.6,0,0,0,88,36.35c6.64-8.07,17.19-8.09,23.76-.06a3.6,3.6,0,0,0,2.76,1.49c6,.33,9.35,3.5,10.19,9.38.35,2.47.92,3,3.4,3.06,1.19,0,1.71.4,1.66,1.64-.07,1.45,0,2.91,0,4.36a4.21,4.21,0,0,1-.13.68c-1-.82-2-1.61-2.93-2.31-3.8-2.75-4.78-2.75-8.58,0-1,.69-1.86,1.47-2.93,2.33-.17-1.09-.28-2-.48-3a21.09,21.09,0,0,0-13-16,4.22,4.22,0,0,0-3.61,0q-11.7,5.17-13.24,17.87c0,.26-.07.51-.11.77,0,0-.07.06-.24.22A29,29,0,0,0,79.6,53.2a3.92,3.92,0,0,0-4.26,0,32.81,32.81,0,0,0-5.18,3.87c0-2.23,0-4.15,0-6.07ZM90.4,55.43c.61-5.38,3.67-9.26,8.39-11.86a2.33,2.33,0,0,1,2.49.09c5.7,3.21,8.36,8.2,8.52,14.61.07,2.86,0,5.72,0,8.59s0,5.93,0,8.89c0,1.28-.43,1.75-1.72,1.74-5.46,0-10.92,0-16.38,0-.93,0-1.68-.12-1.65-1.31.14-6.91-.46-13.85.32-20.73ZM70.34,68.8A14.88,14.88,0,0,1,76,59.1a2,2,0,0,1,2.9,0,15.24,15.24,0,0,1,5.91,12.19c0,1.45,0,2.91,0,4.36s-.39,1.9-1.78,1.84c-1.92-.08-3.84,0-5.77,0s-3.74,0-5.61,0c-1.1,0-1.66-.33-1.61-1.52a65.71,65.71,0,0,1,.25-7.15Zm-19.92-15a8,8,0,0,1,3.76-5.29,1.47,1.47,0,0,1,1.73.07,8.12,8.12,0,0,1,3.62,5c.24.93,0,1.5-1.11,1.44S56.14,55,55,55s-2.38,0-3.57,0c-1,0-1.19-.42-1-1.25Zm-6.68,22q1.62-6.9,3.06-13.85a1.81,1.81,0,0,1,2.13-1.67q7,.09,14,0c1.4,0,1.95.38,1.93,1.85q-.12,6.78,0,13.57c0,1.46-.51,1.9-1.92,1.86-3-.08-5.92,0-8.88,0s-5.93,0-8.89,0c-1.31,0-1.78-.35-1.45-1.75ZM33,63.64a8.05,8.05,0,0,1,3.84-5.24,1.34,1.34,0,0,1,1-.18,4.63,4.63,0,0,1,3,5.93,1.28,1.28,0,0,1-1.34.82h-2.8c-.88,0-1.76,0-2.64,0-1.06.06-1.28-.47-1.07-1.35Zm.1,6.58c1.61,0,3.22,0,4.83,0,1,0,1.3.38,1.1,1.33-.33,1.57-.66,3.14-.94,4.72a1.32,1.32,0,0,1-1.52,1.21c-1.24,0-2.49,0-3.73,0h-3.9c-.83,0-1.18-.39-1.26-1.23a5.73,5.73,0,0,1,5.41-6Zm-7.72,13c.1-.38.53-.47.91-.47h146c.78,0,1.88-.43,2.27.51a6.36,6.36,0,0,1,.05,3.67c-.09.46-.58.55-1,.55H99.77q-36.1,0-72.23,0c-.78,0-1.9.43-2.23-.57a6.49,6.49,0,0,1,0-3.68ZM170,94.56c0-1.43.45-2,1.88-1.87a6.77,6.77,0,0,0,.78,0c2.07,0,2.11,0,2.11,2.08,0,3,0,6,0,9,0,3.16,0,6.33,0,9.49,0,1.21-.44,1.65-1.65,1.65-3.12,0-3.12.07-3.12-3.11,0-5.76,0-11.51,0-17.28ZM157.88,94c-.56-.9-.45-1.3.69-1.27q2.34.07,4.68,0c1.19,0,1.53.53,1.52,1.62,0,3.17,0,6.34,0,9.51s0,6.24,0,9.36c0,1.23-.33,1.78-1.67,1.78-3.1,0-3.1.06-3.1-3s-.06-6.34,0-9.51A15.1,15.1,0,0,0,157.88,94Zm-3.11,19.56c0,1-.37,1.43-1.38,1.42-2.33,0-4.67,0-7,0-.77,0-1.36-.23-1.34-1.12.1-4.67-.38-9.35.3-14a9.22,9.22,0,0,1,3.46-5.74,1.49,1.49,0,0,1,2.19,0,10.36,10.36,0,0,1,3.76,8.21c0,1.82,0,3.64,0,5.45s0,3.85,0,5.77Zm-15-10.3c.1,3.28,0,6.55.05,9.83,0,1.41-.41,2.08-1.87,1.89a1.71,1.71,0,0,0-.32,0,2.26,2.26,0,0,1-2.59-2.54v-8.58c0-3.11.05-6.23,0-9.35,0-1.39.5-1.85,1.83-1.78,1.5.08,3,0,4.52,0,1,0,1.1.36.62,1.12a16.06,16.06,0,0,0-2.22,9.41Zm-10,.62c0,3.06,0,6.13,0,9.18,0,1.38-.35,2-1.84,1.94-2.93-.06-2.93,0-2.93-3V94.84c0-2.14,0-2.14,2.2-2.15.36,0,.73,0,1.09,0,1.08-.07,1.48.44,1.47,1.49,0,3.22,0,6.44,0,9.65Zm-19.72-1.65A14.64,14.64,0,0,0,108,94c-.64-1-.36-1.33.78-1.32,3.17,0,6.35,0,9.52,0,1.13,0,1.58.42,1.56,1.56,0,3.23,0,6.45,0,9.67s0,6.24,0,9.36c0,1.19-.39,1.71-1.63,1.67-2.18,0-4.37-.06-6.55,0-1.26,0-1.62-.52-1.6-1.69,0-3.69,0-7.38,0-11.07Zm-15,5.12c.1-2.18-.21-4.78.28-7.36a9.85,9.85,0,0,1,3.52-5.88,1.48,1.48,0,0,1,2.19,0,10.11,10.11,0,0,1,3.73,8.06c.08,3.74,0,7.48,0,11.22,0,1.13-.42,1.59-1.56,1.57-2.18,0-4.36-.07-6.54,0-1.34,0-1.72-.54-1.68-1.78C95.12,111.35,95.07,109.53,95.07,107.3Zm-5.22,5.82c0,1.34-.42,1.88-1.79,1.82q-3-.12-6.08,0c-1.41.07-2-.4-1.92-1.86.08-3.12,0-6.24,0-9.36s0-6.13,0-9.2c0-1.31.36-1.89,1.77-1.86,3.06.08,6.13.07,9.2,0,1.4,0,1.49.36.81,1.48a14.07,14.07,0,0,0-2,7.58c0,3.79,0,7.59,0,11.38Zm-15-9.34c0,3.17,0,6.34,0,9.5,0,1.2-.41,1.66-1.64,1.66-3.14,0-3.14.07-3.14-3.09V94.72c0-2,0-2,2-2a6.77,6.77,0,0,0,.78,0c1.46-.19,2.05.37,2,1.91C74.78,97.66,74.85,100.72,74.85,103.78Zm-20,9c0,2.1,0,2.13-2.07,2.13s-4.16,0-6.23,0c-.85,0-1.46-.22-1.44-1.2.12-4.57-.33-9.15.28-13.7a9.42,9.42,0,0,1,3.34-5.83,1.65,1.65,0,0,1,2.56,0,10.5,10.5,0,0,1,3.55,7.86c0,.52,0,7.39,0,7.91a2.34,2.34,0,0,0,0,.71C54.85,111.14,54.88,111.79,54.87,112.79ZM58,94c-.61-1-.53-1.38.72-1.34,1.51,0,3,.06,4.53,0,1.26-.05,1.61.53,1.6,1.69,0,3.18,0,6.35,0,9.52,0,3-.06,6,0,9,0,1.45-.36,2.07-1.93,2-2.84-.08-2.84,0-2.85-2.78a10.49,10.49,0,0,0-.06-1.43,3.16,3.16,0,0,0,.06-.47C60.28,106.79,60,97.06,58,94Zm-18.17,9.19c.1,3.28,0,6.55,0,9.83,0,1.41-.41,2.08-1.87,1.89a1.61,1.61,0,0,0-.31,0,2.27,2.27,0,0,1-2.6-2.54v-8.58c0-3.11,0-6.23,0-9.35,0-1.39.5-1.85,1.83-1.78,1.51.08,3,0,4.52,0,1,0,1.11.36.62,1.12a16.13,16.13,0,0,0-2.22,9.41ZM25.12,94.54c0-1.46.5-2,1.91-1.85a5,5,0,0,0,1.09,0c1.36-.15,1.83.44,1.8,1.79-.07,3.17,0,6.33,0,9.5s0,6.12,0,9.18c0,1.38-.49,1.8-1.83,1.79-2.95,0-2.95,0-2.95-3,0-5.82,0-11.63,0-17.44Zm.27,26c.29-.65,1.11-.41,1.71-.41h60c-1,1.5-1.88,2.72-2.67,4-.51.83-1.28.75-2.06.75H66q-19.24,0-38.51,0c-.77,0-1.91.42-2.17-.65a5.67,5.67,0,0,1,.11-3.66Zm49.18,53.9c-.21.47-.82.37-1.28.37q-23.31,0-46.61,0c-1.15,0-1.53-.46-1.55-1.58-.06-3.19-.1-3.19,3.05-3.19H72.76c.69,0,1.7-.31,1.92.57A5.76,5.76,0,0,1,74.57,174.48ZM42.39,163.37c0,1-.37,1.52-1.46,1.5-2.28,0-4.57,0-6.86,0-.83,0-1.45-.22-1.43-1.2.13-5.4-.35-10.81.28-16.19a9.15,9.15,0,0,1,3.56-6,1.42,1.42,0,0,1,2.07,0,10.34,10.34,0,0,1,3.82,8.34c.05,2.18,0,4.36,0,6.54,0,2.34,0,4.68,0,7Zm25-.18c0,1.16-.34,1.72-1.6,1.69-2.23-.06-4.46,0-6.7,0-.82,0-1.47-.19-1.45-1.18.12-5.39-.35-10.8.27-16.18a9.25,9.25,0,0,1,3.43-5.93,1.54,1.54,0,0,1,2.31,0,10.41,10.41,0,0,1,3.72,8.24c0,2.18,0,4.36,0,6.54S67.32,160.9,67.37,163.19Zm8.83-31.47a12.86,12.86,0,0,0-1.36,5.85c0,8.32,0,16.64,0,25,0,.47,0,.94,0,1.4a.94.94,0,0,1-1,.92c-.67,0-1.11-.25-1.16-1,0-.42,0-.83,0-1.25,0-4.52,0-9,0-13.57,0-6.45-3.42-10.81-8.83-13.85a2.68,2.68,0,0,0-2.82.13c-5.54,3.24-8.72,7.84-8.58,14.48.09,4.42,0,8.84,0,13.26,0,1.37-.49,1.81-1.83,1.79-3,0-3,0-3-3,0-4.47.11-8.94,0-13.42-.19-6.23-3.65-10.41-8.91-13.31a2.62,2.62,0,0,0-2.68.17c-5.48,3.2-8.71,7.72-8.61,14.31.07,4.36,0,8.73,0,13.1a10.44,10.44,0,0,1,0,1.25c-.08.63-.5.86-1.1.86a1,1,0,0,1-1.09-.87,7.94,7.94,0,0,1,0-1.09V132.16c0-2,0-2,2-2H75.21c1.75,0,1.75,0,1,1.57Zm33.61,41.13c0,2,0,2-2,2-5.25,0-10.51,0-15.76,0-1.51,0-2-.48-2-2,.08-4.57,0-16.28,0-20.86a3.44,3.44,0,0,0,0-.57c0-.52,0-1.3,0-2.43,0-1.51,0-3,.08-4.52a13.31,13.31,0,0,1,5.95-10.46c1.3-.93,2.34-2.7,3.89-2.67s2.48,1.72,3.75,2.62c4.36,3.09,6.14,7.37,6.09,12.63-.08,8.74,0,17.48,0,26.22Zm10-.12c0,2.09,0,2.11-2.07,2.12-.31,0-.63,0-.94,0-1.25.12-1.83-.36-1.76-1.69s0-2.8,0-4.21q0-12.09,0-24.18a17.49,17.49,0,0,0-6.28-13.58c-2.15-1.88-4.43-3.62-6.68-5.38-1.65-1.28-2.68-1.26-4.35.06-2.16,1.7-4.35,3.38-6.44,5.18a17.5,17.5,0,0,0-6.45,13.8c0,2.08,0,4.17,0,6.25v.34c0,.51,0,1.23,0,2.27,0,4.06-.06,15.25,0,19.3,0,1.46-.51,2-1.91,1.85a5.23,5.23,0,0,0-1.25,0c-1.24.11-1.63-.47-1.63-1.66,0-11.75,0-23.51,0-35.26,0-3.9,2-6.44,5.78-7.53a3.67,3.67,0,0,0,2.57-2.27A12.27,12.27,0,0,1,111,127.3a5.35,5.35,0,0,0,3.71,3.36c3.25.91,5.05,3.77,5.06,7.59,0,5.78,0,11.55,0,17.32v17.17Zm4.71-42.6c7.47,0,23.22,0,31.4,0,.31,0,.69,0,1.18,0h1c4.94,0,9.89,0,14.83,0,1.32,0,1.85.37,1.85,1.77-.05,10.4,0,20.81,0,31.21,0,.84.1,1.77-1.18,1.74s-1.07-.92-1.07-1.7c0-4.68,0-9.36,0-14,0-6.46-3.4-10.82-8.8-13.88a2.72,2.72,0,0,0-2.83.11c-5.48,3.2-8.7,7.74-8.6,14.32.07,4.48,0,9,0,13.42,0,1.37-.47,1.82-1.82,1.81-2.95,0-2.95,0-3-3,0-4.47.11-9,0-13.42-.2-6.24-3.65-10.42-8.92-13.31a2.61,2.61,0,0,0-2.69.17c-5.48,3.21-8.7,7.74-8.59,14.32.07,4.42,0,8.85,0,13.27,0,.84.27,1.94-1.15,1.9s-1.08-1.15-1.08-2c0-8.32,0-16.65,0-25a12.35,12.35,0,0,0-1.46-6.3c-.7-1.23-.34-1.47.92-1.47Zm33,25.77c.13-2.5-.26-5.52.28-8.51a9.82,9.82,0,0,1,3.52-5.89,1.48,1.48,0,0,1,2.19,0,10.1,10.1,0,0,1,3.74,8.06c.07,4.57,0,9.14,0,13.71,0,1.14-.42,1.59-1.56,1.57-2.12,0-4.26-.07-6.38,0-1.34.05-1.89-.4-1.84-1.79.09-2.23,0-4.46,0-7.2Zm-24.68-8.42a9.15,9.15,0,0,1,3.56-6,1.43,1.43,0,0,1,2.07,0,10.34,10.34,0,0,1,3.82,8.34c0,2.18,0,4.36,0,6.54,0,2.34,0,4.68,0,7,0,1-.39,1.52-1.47,1.5-2.29,0-4.57,0-6.86,0-.84,0-1.44-.23-1.42-1.21.13-5.4-.35-10.81.28-16.19Zm38.88,27.37h-22c-7.53,0-15.06,0-22.6,0-.69,0-1.7.31-1.92-.57a5.83,5.83,0,0,1,.11-3.8c.22-.48.82-.37,1.28-.37q23.31,0,46.61,0c1.15,0,1.54.45,1.56,1.58.06,3.18.09,3.18-3.06,3.18Zm2.8-50.35c-.25.6-1,.41-1.56.41-5.41,0-10.83,0-16.24,0a4.58,4.58,0,0,0-.67,0h-.13c-9.63,0-28.31,0-37.93,0-1.39,0-2.36-.28-3-1.64a21.93,21.93,0,0,0-2-2.91,2.88,2.88,0,0,1,1.75-.22q28.87,0,57.74,0c.77,0,1.91-.42,2.18.65a5.84,5.84,0,0,1-.12,3.67Z" class="cls-1"></path><path d="M49.17,71.5c0,.85.36,1.21,1.21,1.21,4.94,0,3.89.49,4-3.71,0-4.37,0-4.35-4-4-.85.07-1.22.38-1.21,1.22C49.19,68,49.19,69.73,49.17,71.5Z" class="cls-1"></path><path d="M140.21,72.71c4,.4,4.09.36,4.09-3.64v-.15h0c0-.94,0-1.87,0-2.81s-.7-1.26-1.45-1.09c-1.24.29-2.82-.92-3.73.81a.65.65,0,0,0,0,.31c0,1.82,0,3.63,0,5.45,0,.79.38,1,1.14,1.13Z" class="cls-1"></path></svg>