<svg viewBox="0 0 200 200" xmlns="http://www.w3.org/2000/svg" id="Layer_1"><defs><style>.cls-1{fill:#b5b4b2;}</style></defs><path d="M179.68,169a3.11,3.11,0,0,1-1.05-2.49c0-31.88,0-113.45,0-145.67a2.41,2.41,0,0,0,.37-1.3v-.06a2.5,2.5,0,0,0-2.5-2.5H24.5a2.5,2.5,0,0,0-2.5,2.5v.06A2.48,2.48,0,0,0,22.49,21c0,32.11,0,113.56,0,145.34A3,3,0,0,1,21.42,169a4.75,4.75,0,0,0-1.61,3.75v4.05c0,4.87,1.82,6.71,6.62,6.71h128q10.58,0,21.15,0a5.65,5.65,0,0,0,4.38-1.7C182.1,179.48,182,171.2,179.68,169Zm-6.11-3.65c0,1.75-.58,2.18-2.22,2.17-7.82-.08-15.65,0-23.48,0-2.21,0-2.22,0-2.22-2.21V22h27.92C173.53,54.29,173.53,134.23,173.57,165.34ZM122,162.19a2.3,2.3,0,0,0-1.16-2.28c-1.15-.54-1.21-1.42-1.21-2.49q0-14.32,0-28.68c0-3.17-.78-4-3.94-4q-15.09,0-30.16,0c-3.28,0-4,.81-4,4.08q0,14.16,0,28.34c0,1.17,0,2.2-1.28,2.79a2.16,2.16,0,0,0-1.07,2c0,.33,0,.67,0,1,0,3-1.5,4.53-4.43,4.53H63a2.33,2.33,0,0,1-2.66-2.62V22h80.37V165.27c0,2.19,0,2.2-2.23,2.2-4.89,0-9.77-.05-14.66,0-1.48,0-2-.46-1.88-1.94C122.06,164.45,122,163.31,122,162.19ZM98.1,144.63h0c0,4.34,0,8.66,0,13,0,1.28-.33,1.83-1.69,1.79-2.72-.08-5.44-.06-8.16,0-1.18,0-1.69-.34-1.69-1.62q0-13.15,0-26.32c0-1.13.36-1.62,1.54-1.6,2.83.06,5.66.07,8.49,0,1.21,0,1.51.5,1.5,1.62C98.08,135.85,98.1,140.24,98.1,144.63Zm17,19.94c1.08,0,1.83.14,1.82,1.51s-.94,1.39-1.92,1.39H100.5c-4.82,0-9.65,0-14.48,0-1.06,0-1.85-.1-1.82-1.5s.77-1.41,1.75-1.41Q100.51,164.59,115.08,164.57Zm-.57-6.8c0,1.11-.32,1.65-1.52,1.62q-4.24-.07-8.49,0c-1.19,0-1.53-.47-1.52-1.61,0-4.38,0-8.77,0-13.15s.07-8.55,0-12.82c0-1.61.53-2,2-2,2.6.1,5.22.07,7.82,0,1.18,0,1.72.3,1.71,1.6Q114.47,144.61,114.51,157.77ZM55.45,118.2v47.05a2,2,0,0,1-2.21,2.22c-7.83,0-15.65,0-23.48,0-1.62,0-2.23-.37-2.23-2.15,0-31.11,0-111.07,0-143.32H55.47C55.43,39.73,55.45,102.78,55.45,118.2Zm120.63,59.47c-.09.53-.6.62-1.06.63-.61,0-1.22,0-1.83,0H27.57a2.36,2.36,0,0,1-2.67-2.67c0-.51,0-1,0-1.52,0-1.09.48-1.53,1.52-1.48.5,0,1,0,1.5,0H173.2q.92,0,1.83,0c.46,0,1,.11,1.05.63A14.48,14.48,0,0,1,176.08,177.67Z" class="cls-1"></path><path d="M109.49,80.66c0-2.22-1-3.09-3.26-3.18-1.89-.07-3.78,0-5.66,0h-5.5l-.33,0c-2.13.18-3.07,1-3.12,3.15q-.14,5.9,0,11.81c0,2.13.86,3,2.94,3.11q6,.18,12,0c2.08-.07,2.91-1,3-3.09C109.57,88.53,109.58,84.6,109.49,80.66Zm-9.09,9.85c-2.5,0-3.74-1.29-3.74-3.85s1.34-4,4-4c2.5,0,3.74,1.28,3.74,3.84S103.09,90.51,100.4,90.51Z" class="cls-1"></path><path d="M84.67,86.61c0-2,0-4,0-6.07s-.79-3-2.77-3q-6.08-.15-12.15,0c-1.91.06-2.82,1.11-2.85,3q-.09,6,0,12c0,1.88.91,2.91,2.72,3a105.88,105.88,0,0,0,12.47,0c1.91-.12,2.56-1,2.58-3s0-3.94,0-5.9ZM76,90.49q-4,0-4-4,0-3.82,3.77-3.83,4,0,4,4C79.77,89.22,78.52,90.49,76,90.49Z" class="cls-1"></path><path d="M109.46,103.69c0-2-1.09-3-3.1-3q-5.82-.08-11.64,0c-2,0-3,.92-3.06,2.83q-.16,6.22,0,12.47c0,1.89,1,2.68,2.91,2.72s3.89,0,5.83,0,3.88,0,5.82,0c2.24,0,3.17-.73,3.23-2.92Q109.62,109.76,109.46,103.69Zm-8.68,10.07c-4.13,0-4.15,0-4.12-4.11,0-4.34-.62-3.73,3.65-3.76s4.13,0,4.13,4.11Q104.44,113.77,100.78,113.76Z" class="cls-1"></path><path d="M84.66,103.65c0-1.84-.91-2.87-2.73-2.91-4.05-.08-8.1-.07-12.15,0a2.6,2.6,0,0,0-2.86,2.84q-.14,6.23,0,12.47a2.5,2.5,0,0,0,2.78,2.68c4.06,0,8.1,0,12.15,0,2,0,2.78-.92,2.81-3s0-4,0-6.06S84.69,105.67,84.66,103.65ZM76,113.57c-4.64,0-4,.55-4-4,0-4.29-.59-3.65,3.72-3.71h.16q3.9,0,3.9,3.87C79.7,114.05,80.41,113.58,76,113.57Z" class="cls-1"></path><path d="M134.21,103.73c0-2-1-3-2.89-3q-6.09-.11-12.15,0c-1.82,0-2.71,1.07-2.72,2.92q0,6.06,0,12.14c0,2.08.87,2.91,3,2.94,2,0,3.89,0,5.83,0s4,0,6,0,2.93-.92,3-2.86Q134.32,109.8,134.21,103.73Zm-8.74,9.85c-4.14,0-4.17,0-4.13-4.16s-.62-3.47,3.88-3.54c3.91,0,3.93,0,3.9,4S129.67,113.57,125.47,113.58Z" class="cls-1"></path><path d="M134.2,80.45a2.61,2.61,0,0,0-2.8-2.91c-4.1-.1-8.2-.11-12.3,0-1.88,0-2.65,1-2.66,2.95q0,6.06,0,12.13c0,2,.83,2.82,2.86,2.85s4,0,6,0,3.88,0,5.83,0,3-.87,3.09-2.89Q134.32,86.52,134.2,80.45Zm-9,10.06q-3.89,0-3.89-3.86,0-4,4.06-4c2.49,0,3.73,1.28,3.73,3.86S127.82,90.51,125.22,90.51Z" class="cls-1"></path><path d="M109.49,34.66c0-2.22-1-3.09-3.26-3.18-1.89-.07-3.78,0-5.66,0h-5.5l-.33,0c-2.13.18-3.07,1-3.12,3.15q-.14,5.9,0,11.81c0,2.13.86,3.05,2.94,3.11q6,.18,12,0c2.08-.07,2.91-1,3-3.09C109.57,42.53,109.58,38.6,109.49,34.66Zm-9.09,9.85c-2.5,0-3.74-1.29-3.74-3.85s1.34-4,4-4c2.5,0,3.74,1.28,3.74,3.84S103.09,44.51,100.4,44.51Z" class="cls-1"></path><path d="M84.67,40.61c0-2,0-4,0-6.07s-.79-3-2.77-3q-6.08-.15-12.15,0c-1.91.06-2.82,1.11-2.85,3q-.09,6,0,12c0,1.88.91,2.91,2.72,3a105.88,105.88,0,0,0,12.47,0c1.91-.12,2.56-1,2.58-3s0-3.94,0-5.9ZM76,44.49q-4,0-4-4.05,0-3.82,3.77-3.83,4,0,4,4C79.77,43.22,78.52,44.49,76,44.49Z" class="cls-1"></path><path d="M109.46,57.69c0-2-1.09-2.95-3.1-3q-5.82-.08-11.64,0c-2,0-3,.92-3.06,2.83q-.16,6.23,0,12.47c0,1.89,1,2.68,2.91,2.72s3.89,0,5.83,0,3.88,0,5.82,0c2.24,0,3.17-.73,3.23-2.92Q109.62,63.76,109.46,57.69Zm-8.68,10.07c-4.13,0-4.15,0-4.12-4.11,0-4.34-.62-3.73,3.65-3.76s4.13,0,4.13,4.11Q104.44,67.77,100.78,67.76Z" class="cls-1"></path><path d="M84.66,57.65c0-1.84-.91-2.87-2.73-2.91-4.05-.08-8.1-.07-12.15,0a2.6,2.6,0,0,0-2.86,2.84q-.14,6.22,0,12.47a2.5,2.5,0,0,0,2.78,2.68c4.06,0,8.1,0,12.15,0,2,0,2.78-.92,2.81-3s0-4,0-6.06S84.69,59.67,84.66,57.65ZM76,67.57c-4.64,0-4,.55-4-4,0-4.29-.59-3.65,3.72-3.71h.16q3.9,0,3.9,3.87C79.7,68.05,80.41,67.58,76,67.57Z" class="cls-1"></path><path d="M134.21,57.73c0-2-1-3-2.89-3q-6.09-.1-12.15,0c-1.82,0-2.71,1.07-2.72,2.92q0,6.06,0,12.14c0,2.08.87,2.91,3,2.94,2,0,3.89,0,5.83,0s4,0,6,0,2.93-.92,3-2.86Q134.32,63.8,134.21,57.73Zm-8.74,9.85c-4.14,0-4.17,0-4.13-4.16s-.62-3.47,3.88-3.54c3.91,0,3.93,0,3.9,4S129.67,67.57,125.47,67.58Z" class="cls-1"></path><path d="M134.2,34.45a2.61,2.61,0,0,0-2.8-2.91c-4.1-.1-8.2-.11-12.3,0-1.88.05-2.65,1-2.66,3q0,6.06,0,12.13c0,2,.83,2.82,2.86,2.85s4,0,6,0,3.88,0,5.83,0,3-.87,3.09-2.89Q134.32,40.52,134.2,34.45Zm-9,10.06q-3.89,0-3.89-3.86,0-4,4.06-4c2.49,0,3.73,1.28,3.73,3.86S127.82,44.51,125.22,44.51Z" class="cls-1"></path><path d="M167.89,82.61A2.61,2.61,0,0,0,165,79.77c-4-.06-8,0-12,0-2,0-2.92,1-2.95,3s0,3.94,0,5.91h0c0,2,0,4,0,6.07s1,3,3,3q5.91.06,11.82,0c1.92,0,3-1,3-2.87Q168,88.76,167.89,82.61Zm-8.69,10c-4.52,0-4,.55-4-4,0-4.19-.42-3.66,3.62-3.69s4,0,4,4S163.32,92.64,159.2,92.63Z" class="cls-1"></path><path d="M167.9,106c0-2-1-3-3-3Q159,103,153,103c-2,0-2.9,1-2.93,3s0,3.92,0,5.89,0,3.82,0,5.73c0,2.36.9,3.34,3.17,3.36q5.74.06,11.49,0c2.1,0,3.12-1,3.14-3.08Q168,112,167.9,106Zm-5.1,6.21h0c0,4.16.52,3.67-3.62,3.66-4.52,0-4,.61-4-4,0-4.12-.4-3.69,3.64-3.68C163.42,108.21,162.73,107.59,162.8,112.21Z" class="cls-1"></path><path d="M167.88,129.08a2.56,2.56,0,0,0-2.85-2.79q-6.08,0-12.16,0c-1.85,0-2.72.93-2.76,2.83s0,4,0,6.07,0,4.16,0,6.24c0,1.69.87,2.77,2.48,2.81q6.33.16,12.65,0c1.74,0,2.63-1.08,2.65-2.85C168,137.28,168,133.18,167.88,129.08Zm-9.09,10c-4,0-3.56.53-3.6-3.71v-.34c.05-4.46-.48-3.77,3.79-3.83,2.54,0,3.82,1.26,3.82,3.78C162.8,139.13,162.8,139.15,158.79,139.13Z" class="cls-1"></path><path d="M51,82.91c0-2.14-.93-3.12-3-3.15q-5.82-.06-11.65,0c-2.1,0-3.09,1-3.12,3.1,0,3.93,0,7.87,0,11.8,0,2.19,1,3.12,3.24,3.14q5.74,0,11.49,0c2.13,0,3-.94,3.07-3.08,0-2,0-3.94,0-5.9S51,84.88,51,82.91Zm-8.73,9.72c-4.59,0-3.89.57-4-4h0c.05-4.19-.53-3.68,3.61-3.67,4.53,0,4-.63,4,4C45.91,93,46.3,92.64,42.26,92.63Z" class="cls-1"></path><path d="M51,112.11c0-2.08,0-4.15,0-6.23,0-1.85-1-2.83-2.78-2.85q-6.08-.07-12.15,0a2.59,2.59,0,0,0-2.84,2.83q-.1,6.15,0,12.31A2.6,2.6,0,0,0,36,121q6.07.1,12.15,0C50.06,121,51,120,51,118S51,114.08,51,112.11Zm-5.09-.36v.17c0,4.52.5,3.9-3.88,4h0c-4.28-.05-3.73.53-3.72-3.72,0-4.56-.65-3.94,4-4C46.26,108.17,45.89,107.77,45.91,111.75Z" class="cls-1"></path><path d="M167.89,33.61A2.61,2.61,0,0,0,165,30.77c-4-.06-8-.05-12,0-2,0-2.92,1-2.95,3.05s0,3.94,0,5.91h0c0,2,0,4,0,6.07s1,3,3,3q5.91.06,11.82,0c1.92,0,3-1,3-2.87Q168,39.76,167.89,33.61Zm-8.69,10c-4.52,0-4,.55-4-4,0-4.19-.42-3.66,3.62-3.69s4,0,4,4S163.32,43.64,159.2,43.63Z" class="cls-1"></path><path d="M167.9,57c0-2-1-3-3-3Q159,54,153,54c-2,0-2.9,1-2.93,3s0,3.92,0,5.89,0,3.82,0,5.73c0,2.36.9,3.34,3.17,3.36q5.74.06,11.49,0c2.1,0,3.12-1,3.14-3.08Q168,63,167.9,57Zm-5.1,6.21h0c0,4.16.52,3.67-3.62,3.66-4.52,0-4,.61-4-4,0-4.12-.4-3.69,3.64-3.68C163.42,59.21,162.73,58.59,162.8,63.21Z" class="cls-1"></path><path d="M51,33.91c0-2.14-.93-3.12-3-3.15q-5.82-.06-11.65,0c-2.1,0-3.09,1-3.12,3.1,0,3.93,0,7.87,0,11.8,0,2.19,1,3.12,3.24,3.14q5.74,0,11.49,0c2.13,0,3-.94,3.07-3.08,0-2,0-3.94,0-5.9S51,35.88,51,33.91Zm-8.73,9.72c-4.59,0-3.89.57-4-4h0c.05-4.19-.53-3.68,3.61-3.67,4.53,0,4-.63,4,4C45.91,44,46.3,43.64,42.26,43.63Z" class="cls-1"></path><path d="M51,63.11C51,61,51,59,51,56.88c0-1.85-1-2.83-2.78-2.85Q42.13,54,36.05,54a2.59,2.59,0,0,0-2.84,2.83q-.1,6.15,0,12.31A2.6,2.6,0,0,0,36,72q6.07.1,12.15,0C50.06,72,51,71,51,69S51,65.08,51,63.11Zm-5.09-.36v.17c0,4.52.5,3.9-3.88,4h0c-4.28-.05-3.73.53-3.72-3.72,0-4.56-.65-3.94,4-4C46.26,59.17,45.89,58.77,45.91,62.75Z" class="cls-1"></path><path d="M51,135.3c0-1.92,0-3.83,0-5.74,0-2.44-.81-3.27-3.17-3.28-3.83,0-7.67,0-11.49,0-2.19,0-3.13.94-3.15,3.19q-.06,5.82,0,11.64c0,2.07.91,3.12,2.89,3.16,4.05.09,8.1.08,12.16,0,1.81,0,2.71-1.09,2.75-2.92C51,139.34,51,137.32,51,135.3Zm-9.09,3.83c-4.13-.06-3.58.55-3.61-3.67s0-4.23,4.21-4.21c3.69,0,3.38-.49,3.39,3.4v.51C45.85,139.78,46.45,139.06,41.91,139.13Z" class="cls-1"></path></svg>