<svg viewBox="0 0 200 200" xmlns="http://www.w3.org/2000/svg" id="Layer_1"><defs><style>.cls-1{fill:#ad8b3a;}</style></defs><path d="M17.56,154.76a9.68,9.68,0,0,1,6.53-6.16,13.28,13.28,0,0,0,4.68-3.06A16.67,16.67,0,0,1,49,143.6c1.13.68,1.33.43,1.31-.74-.05-2.69-.06-5.37,0-8.05,0-1.19-.43-1.6-1.6-1.58-4.24,0-8.48-.16-12.71.05-6.68.33-11.39-3.58-10.37-12,.55-4.58,3.92-7.56,8.63-7.74,1.72-.07,3.43,0,5.15,0A2.26,2.26,0,0,0,42,111V66.91c0-.22,0-.43,0-.65.18-1.4-.42-2-1.83-1.83a5.4,5.4,0,0,1-5.66-2.88C33,58.85,34,55.78,37,54c6-3.6,12-7.13,18-10.69Q75.69,31,96.41,18.63a6.27,6.27,0,0,1,7,0q29.5,17.58,59,35.11a7.19,7.19,0,0,1,2.74,2.42,5.46,5.46,0,0,1-4.77,8.32c-2.54,0-2.54,0-2.54,2.55v44.1c0,2.42,0,2.39,2.37,2.44a45.5,45.5,0,0,1,6.9.2,8.3,8.3,0,0,1,7,6.85,16.19,16.19,0,0,1,.15,4.81c-.54,4.71-4,7.76-8.87,7.83q-7,.1-14,0c-1.43,0-1.88.46-1.83,1.86.09,2.68,0,5.37,0,8.05,0,1,.27,1.17,1.09.6,6-4.19,15.44-3.32,20.89,2.18a13.74,13.74,0,0,0,5,3.06c4,1.53,5.81,4.22,5.82,8.49,0,5.1-.14,10.2,0,15.29.17,4.8-1.75,8-6.26,9.7H23.67a9.35,9.35,0,0,1-6.11-6.11Zm82.37,22.08h71.74c.59,0,1.18,0,1.77,0,2.16-.12,3.19-1.05,3.21-3.2.06-5.31,0-10.62,0-15.93a3.25,3.25,0,0,0-2.41-3.4,18.38,18.38,0,0,1-6.43-3.86c-5.45-4.8-11.16-4.75-16.52.14a16.84,16.84,0,0,1-22.59.45,26.38,26.38,0,0,0-3-2.41c-4.45-2.77-9.81-2.15-13.89,1.66a17,17,0,0,1-11.43,4.85,16.43,16.43,0,0,1-12.12-4.68A11.58,11.58,0,0,0,78,147.12c-2.74.44-4.76,2.07-6.75,3.82a16.28,16.28,0,0,1-12,4.17,17.11,17.11,0,0,1-11.09-4.89,11.12,11.12,0,0,0-15.79-.07,18.68,18.68,0,0,1-6.81,4.18,3.08,3.08,0,0,0-2.36,3.08c0,5.47-.06,10.94,0,16.41,0,1.91,1,2.81,2.91,3,.64.06,1.29,0,1.93,0H99.93Zm.16-112.4H78.22q-14.31,0-28.62,0c-1,0-1.72.1-1.72,1.44q.06,23.09,0,46.17c0,1.13.42,1.52,1.51,1.5,2.42-.05,4.83-.09,7.24,0,1.53.07,2-.42,2-2-.07-10,0-20,0-30.08,0-5.64,3.45-9.1,9.12-9.15,3,0,5.9,0,8.85,0,6.4,0,9.84,3.44,9.84,9.84q0,14.55,0,29.12c0,2.23,0,2.24,2.22,2.24h61.1c2.16,0,2.17,0,2.17-2.1V66.54c0-2.09,0-2.09-2.15-2.09H100.09Zm59.07-5.74c-.49-.36-.69-.53-.91-.66q-28.53-17-57.07-34a2.37,2.37,0,0,0-2.79.09L42,57.78c-.37.22-.91.3-1,.91H159.16ZM99.91,119.44H70.32q-17.7,0-35.39,0c-1.44,0-2.89.19-3.22,1.76-.39,1.79-.78,3.74.6,5.37a2.24,2.24,0,0,0,1.73.72c.59,0,1.18,0,1.77,0H164c.65,0,1.29,0,1.93,0a2.19,2.19,0,0,0,2-1.2,6.67,6.67,0,0,0,0-5.31c-.65-1.48-2.17-1.32-3.52-1.32H99.91Zm.12,13.8c-9.37,0-18.75,0-28.13,0-1.49,0-2,.49-2,1.95.09,2.57,0,5.15,0,7.72,0,1.05.16,1.36,1.23.73a16.82,16.82,0,0,1,20.5,2.1c5.33,4.8,11,4.83,16.37.08,6.19-5.44,13.47-6.23,20.62-2.15,1,.56,1.18.31,1.17-.68,0-2.52,0-5,0-7.56,0-2.12,0-2.16-2.16-2.16ZM80.52,96.62c0-5,0-10.08,0-15.12,0-2.27-1-3.23-3.22-3.25-3.06,0-6.11,0-9.17,0-2.87,0-3.78.86-3.79,3.69,0,10,0,20,0,29.92,0,1.25.4,1.7,1.67,1.68,4.23-.06,8.46-.08,12.69,0,1.54,0,1.89-.56,1.88-2C80.48,106.59,80.52,101.6,80.52,96.62ZM64.09,140.91c0-2.09,0-4.18,0-6.27,0-1-.4-1.44-1.42-1.41-1.61,0-3.22.07-4.82,0-1.28-.06-1.69.45-1.67,1.7.06,3.16,0,6.32,0,9.48,0,4.9.27,5.15,5.27,4.8.37,0,.74-.1,1.11-.16a1.58,1.58,0,0,0,1.52-1.85c-.08-2.09,0-4.18,0-6.27Zm79.52,0c0-2,0-4.07,0-6.1,0-1.16-.36-1.68-1.57-1.63q-2.33.1-4.65,0c-1.23-.05-1.72.36-1.69,1.65.07,3.21,0,6.43,0,9.64,0,4.7.27,5,5.09,4.69.37,0,.74-.07,1.12-.12a1.68,1.68,0,0,0,1.69-2c-.09-2,0-4.07,0-6.11Z" class="cls-1"></path><path d="M140.08,171.61a17.55,17.55,0,0,1-11.86-4.78c-5.25-4.66-11.16-4.61-16.45.1-7.06,6.28-16.62,6.29-23.66,0-5.35-4.77-11.13-4.78-16.58,0-7.38,6.42-16.79,6.31-24-.27a11,11,0,0,0-7.2-3.16,7.65,7.65,0,0,1-1.26-.18,2.87,2.87,0,0,1,.55-5.71,16.61,16.61,0,0,1,11.79,4.72,11.77,11.77,0,0,0,9.21,3.37A12.18,12.18,0,0,0,68.27,162a16.09,16.09,0,0,1,8.07-4.09,16.8,16.8,0,0,1,15.3,4.38,11.66,11.66,0,0,0,16.39.15c7.26-6.52,16.58-6.58,23.85-.17,5.38,4.75,11.39,4.69,16.73-.14a16.78,16.78,0,0,1,11.21-4.56c2,0,3.27,1,3.38,2.69a2.93,2.93,0,0,1-3,3.12c-3.55.14-6.26,1.75-8.82,4.06a16.35,16.35,0,0,1-11.3,4.16Z" class="cls-1"></path><path d="M116.46,100.15H100.39c-3.92,0-6-2.13-6.06-6.06q0-7.8,0-15.59c0-3.72,2.23-6.11,5.94-6.14q16.07-.09,32.14,0c3.85,0,6.14,2.45,6.16,6.33q0,7.56,0,15.11c0,4.14-2.26,6.36-6.37,6.36-5.24,0-10.49,0-15.74,0Zm-.12-5.71c4.87,0,9.75,0,14.62,0,1.2,0,1.74-.28,1.72-1.61-.06-4.33-.05-8.67,0-13,0-1.16-.35-1.61-1.56-1.61q-14.78,0-29.56,0c-1.22,0-1.56.46-1.54,1.61,0,4.23.07,8.47,0,12.7,0,1.44.35,2,1.88,1.94,4.82-.1,9.64,0,14.46,0Z" class="cls-1"></path><path d="M72.7,53.46a2.88,2.88,0,0,1-2.82-4.1,3.89,3.89,0,0,1,1.55-1.59L86.54,37.7a7.67,7.67,0,0,1,1.11-.65,2.87,2.87,0,0,1,3.59.86,2.64,2.64,0,0,1-.34,3.77c-5.6,4-11.38,7.83-17.23,11.51a2.94,2.94,0,0,1-1,.28Z" class="cls-1"></path><path d="M130.24,50.64a2.83,2.83,0,0,1-3.82,2.66,5.51,5.51,0,0,1-1.27-.67q-7.71-5.12-15.38-10.25c-1.2-.8-2-1.82-1.68-3.35a2.9,2.9,0,0,1,4.57-1.74c2.14,1.32,4.2,2.77,6.3,4.17l9.49,6.33a3.34,3.34,0,0,1,1.8,2.85Z" class="cls-1"></path><path d="M102.87,43.76c0,2.08,0,4.17,0,6.25s-1.22,3.47-3,3.45S97,52.12,97,50q0-6.26,0-12.52c0-2.1,1.24-3.48,3-3.46s2.91,1.38,2.94,3.51,0,4.17,0,6.26Z" class="cls-1"></path></svg>