<svg viewBox="0 0 200 200" xmlns="http://www.w3.org/2000/svg" id="Layer_1"><defs><style>.cls-1{fill:#b5b4b2;}</style></defs><path d="M181.49,182.89q-81.46,0-162.92,0c-1.21,0-1.49-.28-1.49-1.49q.06-81.45,0-162.91a3.33,3.33,0,0,1,3.06-1.43c3.83.08,7.65.06,11.47.3A160.32,160.32,0,0,1,56.89,20.9c14.49,3.26,27.89,9.24,40.78,16.44a4.11,4.11,0,0,0,4.58,0A163.69,163.69,0,0,1,133.06,23.6a151,151,0,0,1,45.88-6.5c3.38,0,4,.57,4,3.93V85.87q0,46.65,0,93.3c0,1.46-.06,2.82-1.43,3.71ZM177.8,46.46c0-7.49,0-15,0-22.48,0-1.23-.3-1.71-1.66-1.66-5.65.2-11.3.48-16.92,1.1A128.53,128.53,0,0,0,119.08,34.6c-8.91,4.12-17.43,9-26.1,13.6-14,7.46-28.74,13-44.51,15.53a169,169,0,0,1-24.29,2.15c-.67,0-1.58-.28-1.89.53a5.26,5.26,0,0,0,0,3.48c.33,1,1.4.58,2.16.58q20.55,0,41.09,0c5.83,0,10,2.82,12.08,8.24a1.93,1.93,0,0,0,2.13,1.48c3.56,0,7.12,0,10.68,0A7,7,0,0,1,95,81.88a7.38,7.38,0,0,1,2.26,8.19A7.25,7.25,0,0,1,90.35,95Q74,95,57.67,95a2,2,0,0,0-2.28,1.5c-2,5.33-6.22,8.21-11.91,8.22q-9.78,0-19.57,0c-1.14,0-1.84.21-1.83,1.58q0,13.35,0,26.69a1.63,1.63,0,0,0,1.41,1.81,14.37,14.37,0,0,1,4.81,2.27,1.38,1.38,0,0,0,1.88,0,14,14,0,0,1,4.8-2.27,1.69,1.69,0,0,0,1.44-2c-.05-3.23,0-6.47,0-9.7,0-2.7.76-3.45,3.46-3.46,8.47,0,16.93,0,25.4,0a6.63,6.63,0,0,0,3.65-1c9.42-5.78,18.89-11.47,28.28-17.3a4.61,4.61,0,0,1,5.5,0c9.44,5.84,19,11.58,28.42,17.37a6.1,6.1,0,0,0,3.35,1q12.94,0,25.88,0c2.28,0,3.12.85,3.14,3.13,0,3.34,0,6.69,0,10a1.69,1.69,0,0,0,1.44,2,13.63,13.63,0,0,1,4.79,2.27,1.4,1.4,0,0,0,1.89,0,12.51,12.51,0,0,1,4.49-2.15c1.38-.31,1.75-1.05,1.74-2.41-.05-8.57,0-17.14,0-25.72,0-2-.06-2-2.13-2-6.53,0-13,0-19.58,0a11.94,11.94,0,0,1-11.47-7.91A2.39,2.39,0,0,0,141.9,95q-16.1.08-32.19,0a7.4,7.4,0,1,1,0-14.79c3.5,0,7,0,10.51,0a1.94,1.94,0,0,0,2.13-1.49c2.06-5.4,6.27-8.24,12.08-8.24,13.8,0,27.61,0,41.41,0,1.57,0,2.06-.5,2-2-.06-7.33,0-14.67,0-22ZM22.09,41.36c0,5.87,0,11.75,0,17.62,0,1.37.43,1.72,1.79,1.68,6.46-.19,12.9-.63,19.32-1.41,17.88-2.16,34.33-8.46,50-17,1.1-.6.89-.93,0-1.44-11-5.86-22.2-11-34.32-14a150.26,150.26,0,0,0-34-4.33c-2.65,0-2.69-.56-2.68,2.64,0,5.44,0,10.88,0,16.33ZM129.26,145.79c0-6.79,0-13.59,0-20.38A2.55,2.55,0,0,0,128,122.9q-13.35-8.07-26.65-16.24a2.27,2.27,0,0,0-2.67,0Q85.27,114.85,71.85,123a2.32,2.32,0,0,0-1.24,2.23q0,20.61,0,41.23c0,1.35.48,1.81,1.8,1.78,3.45-.06,6.9,0,10.35,0,2.13,0,2.17,0,2.17-2.18q0-12.12,0-24.25a14.79,14.79,0,0,1,.21-2.9c1.48-7.53,8.48-13,15.74-12.31A15,15,0,0,1,115,141.72c0,8.09,0,16.17,0,24.26,0,2.19,0,2.22,2.13,2.22,3.39,0,6.79-.07,10.19,0,1.59.05,2-.53,2-2.07-.06-6.79,0-13.58,0-20.37ZM99.8,177.91h76.84a1.08,1.08,0,0,0,1.15-1.08c.47-3,.08-3.51-2.94-3.51H50.61a21.19,21.19,0,0,1-2.26-.05,2.33,2.33,0,0,1-2.15-1.9c-.42-1.71.75-3.12,2.71-3.14,4.85,0,9.71-.06,14.56,0,1.5,0,2.1-.38,2.09-2q-.09-14.9,0-29.77c0-1.6-.55-2-2.08-2-6.58.06-13.16,0-19.73,0-2.23,0-2.23,0-2.23,2.28v33c0,2.82-.73,3.53-3.55,3.54H23.9c-.63,0-1.33-.13-1.7.63-1,2.07.15,4,2.38,4H99.8Zm-28.21-88h17.3A5.21,5.21,0,0,0,91,89.64a2.18,2.18,0,0,0,0-4.09,5.2,5.2,0,0,0-2.07-.25c-4.26,0-8.52,0-12.78,0-2,0-2.84-.84-3.08-2.77-.55-4.39-3.26-6.9-7.66-6.91-13.85,0-27.7,0-41.55,0-1.22,0-1.74.4-1.74,1.68q.06,10.35,0,20.69c0,1.29.52,1.68,1.74,1.68,6.47,0,12.93,0,19.4,0,4.36,0,7-2.4,7.69-6.76.4-2.39,1-2.92,3.38-2.93,5.77,0,11.54,0,17.3,0ZM177.8,87.63c0-3.39-.05-6.79,0-10.18,0-1.41-.46-1.9-1.87-1.88-4.53.06-9,0-13.58,0-9.22,0-18.44,0-27.65,0-4.56,0-7.31,2.46-7.85,6.87-.24,2-1.13,2.81-3.22,2.82H111.37a14,14,0,0,0-1.45,0c-1.53.16-2.46,1-2.41,2.31.06,1.47,1,2.05,2.33,2.23a14.9,14.9,0,0,0,1.77,0h34c2.42,0,3,.54,3.42,2.9.71,4.43,3.35,6.76,7.82,6.79,6.41,0,12.82,0,19.24,0,1.35,0,1.8-.49,1.77-1.81-.06-3.39,0-6.79,0-10.18Zm-19.41,63.74c0-5,0-10,0-15,0-1.38-.44-1.9-1.86-1.89q-10.19.08-20.36,0c-1.44,0-1.85.53-1.84,1.91q.06,14.94,0,29.89c0,1.46.44,2,1.94,2q10.1-.09,20.19,0c1.52,0,2-.54,1.93-2C158.34,161.28,158.39,156.32,158.39,151.37Zm-136.3,2.72c0,4.15,0,8.3,0,12.45,0,1.14.35,1.69,1.57,1.67,3.72,0,7.44,0,11.16,0,1.19,0,1.63-.47,1.6-1.63,0-1.94,0-3.88,0-5.82V141.85c0-1.93-.29-2.09-2-1.2a12.48,12.48,0,0,0-2.84,2.11c-1.63,1.52-2.9,1.53-4.51,0a12,12,0,0,0-3.13-2.26c-1.51-.7-1.77-.54-1.78,1.13,0,4.15,0,8.3,0,12.45Zm141.4-.26c0,4.2,0,8.4,0,12.6,0,1.34.47,1.82,1.8,1.79,3.55-.06,7.11-.07,10.66,0,1.4,0,1.92-.44,1.89-1.86-.06-4.37,0-8.73,0-13.1,0-3.87,0-7.76,0-11.63,0-1.66-.29-1.82-1.8-1.11a11.46,11.46,0,0,0-2.89,2c-1.92,1.81-3,1.8-5,0a11.17,11.17,0,0,0-2.76-2c-1.6-.77-1.88-.61-1.88,1.14,0,4,0,8.08,0,12.13ZM90,156.11c0,3.39,0,6.79,0,10.18,0,1.35.34,2,1.81,1.93a38.63,38.63,0,0,1,3.88,0c1.09,0,1.58-.4,1.57-1.52q0-10.5,0-21c0-1.12-.49-1.55-1.57-1.51-1.29,0-2.59.06-3.88,0s-1.83.41-1.81,1.76c.07,3.4,0,6.79,0,10.18Zm19.81.08c0-3.39,0-6.79,0-10.18,0-1.43-.52-1.94-1.9-1.85s-2.59.05-3.88,0c-1,0-1.48.39-1.48,1.43q0,10.57,0,21.16c0,1,.47,1.45,1.48,1.43,1.29,0,2.59-.07,3.88,0s1.93-.41,1.9-1.84C109.8,163,109.85,159.58,109.85,156.19ZM53.52,129.37h9.85c2.11,0,2.15,0,2.15-2.18,0-.38,0-.76,0-1.13a1.11,1.11,0,0,0-1.28-1.28c-.81,0-1.61,0-2.42,0-6.14,0-12.26,0-18.4,0-1.5,0-2.09.5-1.92,2a4.49,4.49,0,0,1,0,1c-.11,1.25.44,1.73,1.69,1.7,3.44,0,6.89,0,10.33,0Zm92.87,0h9.84c2.11,0,2.15-.05,2.16-2.19,0-.38,0-.75,0-1.13a1.11,1.11,0,0,0-1.28-1.27c-.92,0-1.83,0-2.75,0-6,0-12,0-18.07,0-1.5,0-2.1.51-1.92,2a4.49,4.49,0,0,1,0,1c-.12,1.26.44,1.72,1.69,1.7,3.45,0,6.89,0,10.33,0ZM100,139.08c2.64,0,5.28,0,7.91,0,1.21,0,1.57-.29,1-1.49a9.88,9.88,0,0,0-18,0c-.46,1.07-.24,1.47,1,1.45,2.69,0,5.38,0,8.07,0Z" class="cls-1"></path><path d="M80.33,151.32c0,3.07,0,6.14,0,9.22,0,2-.94,3.05-2.57,3s-2.52-1.08-2.52-3.08q0-9.13,0-18.28c0-2,.88-3.08,2.48-3.11s2.6,1.07,2.61,3.15c0,3,0,6,0,9.06Z" class="cls-1"></path><path d="M124.66,151.33c0,3.07,0,6.15,0,9.22,0,2-1,3-2.57,3s-2.51-1.09-2.52-3.09q0-9.13,0-18.28c0-2,.89-3.08,2.5-3.1s2.58,1.06,2.6,3.17c0,3,0,6,0,9.06Z" class="cls-1"></path><path d="M51.2,144.13c0,.81,0,1.62,0,2.43A2.43,2.43,0,0,1,48.71,149a2.39,2.39,0,0,1-2.56-2.36c-.08-1.72-.08-3.45,0-5.17a2.41,2.41,0,0,1,2.55-2.38,2.44,2.44,0,0,1,2.49,2.44c.06.86,0,1.73,0,2.59Z" class="cls-1"></path><path d="M55.84,144a24.82,24.82,0,0,1,0-2.59,2.34,2.34,0,0,1,2.43-2.31,2.36,2.36,0,0,1,2.59,2.32,52.64,52.64,0,0,1,0,5.33,2.37,2.37,0,0,1-2.5,2.25,2.4,2.4,0,0,1-2.49-2.25c-.09-.91,0-1.84,0-2.75Z" class="cls-1"></path><path d="M51.19,158.63c0,.86.06,1.73,0,2.58a2.44,2.44,0,0,1-2.56,2.37,2.39,2.39,0,0,1-2.46-2.3c-.08-1.78-.09-3.56,0-5.33a2.37,2.37,0,0,1,2.47-2.28A2.43,2.43,0,0,1,51.19,156c.06.85,0,1.72,0,2.59Z" class="cls-1"></path><path d="M60.9,158.71c0,.81.05,1.62,0,2.43a2.44,2.44,0,0,1-2.49,2.44,2.4,2.4,0,0,1-2.54-2.38c-.08-1.73-.08-3.46,0-5.18a2.39,2.39,0,0,1,2.56-2.35A2.46,2.46,0,0,1,60.89,156a1.83,1.83,0,0,1,0,.33v2.42Z" class="cls-1"></path><path d="M139,143.92c0-.86-.07-1.73,0-2.58a2.42,2.42,0,0,1,2.52-2.24,2.38,2.38,0,0,1,2.49,2.26,50.06,50.06,0,0,1,0,5.34,2.32,2.32,0,0,1-2.44,2.31,2.41,2.41,0,0,1-2.58-2.34c-.07-.91,0-1.83,0-2.75Z" class="cls-1"></path><path d="M153.76,144.14c0,.81.05,1.62,0,2.43a2.43,2.43,0,0,1-2.49,2.44,2.39,2.39,0,0,1-2.55-2.37c-.08-1.72-.08-3.45,0-5.17a2.4,2.4,0,0,1,2.55-2.37,2.45,2.45,0,0,1,2.49,2.45C153.81,142.41,153.76,143.28,153.76,144.14Z" class="cls-1"></path><path d="M139,158.65c0-.91-.07-1.84,0-2.75a2.41,2.41,0,0,1,2.51-2.24,2.37,2.37,0,0,1,2.49,2.26,49.88,49.88,0,0,1,0,5.33,2.52,2.52,0,0,1-5,0c-.08-.85,0-1.72,0-2.58h0Z" class="cls-1"></path><path d="M153.76,158.66c0,.86.06,1.73,0,2.58a2.4,2.4,0,0,1-2.6,2.32,2.3,2.3,0,0,1-2.42-2.32,47.39,47.39,0,0,1,0-5.33,2.37,2.37,0,0,1,2.49-2.25,2.41,2.41,0,0,1,2.51,2.24c.08.91,0,1.84,0,2.75h0Z" class="cls-1"></path></svg>